# xmcd
#
# Track frame offsets:
#	151
#	14115
#	48860
#	65749
#	83519
#	98671
#	134014
#	151870
#	190767
#	203792
#
# Disc length: 3258 seconds
#
# Revision: 1
# Processed by: cddbd v1.5.1PL0 Copyright (c) Steve Scherf et al.
# Submitted via: audiograbber 1.83.01
#
DISCID=810cb80a
DTITLE=Roy Buchanan - Live In Shiba - 6-15-1977 - Disc 1
DYEAR=1977
DGENRE=Blues
TTITLE0=My Baby Says She's Gonna Leave Me
TTITLE1=Roy's Blues
TTITLE2=Further On Up The Road
TTITLE3=Sweet Dreams
TTITLE4=Johnny B Goode
TTITLE5=Since You've Been Gone
TTITLE6=Sweet Honeydew
TTITLE7=Down By The River
TTITLE8=Slow Down
TTITLE9=Hey Joe ~ Foxy Lady
EXTD=
EXTT0=
EXTT1=
EXTT2=
EXTT3=
EXTT4=
EXTT5=
EXTT6=
EXTT7=
EXTT8=
EXTT9=
PLAYORDER=
